<?xml version="1.0" encoding="utf-8"?>
<!-- Generator: Adobe Illustrator 18.0.0, SVG Export Plug-In . SVG Version: 6.00 Build 0)  -->
<!DOCTYPE svg PUBLIC "-//W3C//DTD SVG 1.1//EN" "http://www.w3.org/Graphics/SVG/1.1/DTD/svg11.dtd">
<svg version="1.1" id="Layer_1" xmlns="http://www.w3.org/2000/svg" xmlns:xlink="http://www.w3.org/1999/xlink" x="0px" y="0px"
	 viewBox="0 0 173.9 87.3" enable-background="new 0 0 173.9 87.3" xml:space="preserve">
<path fill="#FFFFFF" d="M43.7,0C19.6,0,0,19.6,0,43.7s19.6,43.7,43.7,43.7s43.7-19.6,43.7-43.7S67.8,0,43.7,0z M43.7,80.3
	C23.4,80.3,7,63.9,7,43.7C7,23.4,23.4,7,43.7,7c20.2,0,36.7,16.4,36.7,36.7C80.3,63.9,63.9,80.3,43.7,80.3z"/>
<path d="M173.9,43.7c0,20.2-16.5,36.7-36.7,36.7c-20.2,0-36.7-16.5-36.7-36.7C100.5,23.4,117,7,137.2,7
	C157.4,7,173.9,23.4,173.9,43.7z"/>
</svg>
